<?xml version="1.0" standalone="no"?>
<!DOCTYPE svg PUBLIC "-//W3C//DTD SVG 20010904//EN"
 "http://www.w3.org/TR/2001/REC-SVG-20010904/DTD/svg10.dtd">
<svg version="1.0" xmlns="http://www.w3.org/2000/svg"
 width="1320.000000pt" height="136.000000pt" viewBox="0 0 1320.000000 136.000000"
 preserveAspectRatio="xMidYMid meet">

<g transform="translate(0.000000,136.000000) scale(0.100000,-0.100000)"
fill="#000000" stroke="none">
<path d="M1697 1199 c35 -10 73 -52 73 -79 0 -30 -40 -70 -100 -100 -75 -38
-85 -54 -19 -29 80 31 127 57 139 78 13 25 13 77 0 101 -11 21 -61 40 -99 39
-24 -1 -24 -1 6 -10z"/>
<path d="M2111 1200 c14 -4 37 -15 51 -24 68 -45 63 -170 -10 -211 l-27 -16
30 6 c87 18 124 137 63 202 -27 30 -77 53 -110 52 -22 -1 -22 -1 3 -9z"/>
<path d="M2878 1203 c6 -2 18 -2 25 0 6 3 1 5 -13 5 -14 0 -19 -2 -12 -5z"/>
<path d="M2968 1203 c7 -3 16 -2 19 1 4 3 -2 6 -13 5 -11 0 -14 -3 -6 -6z"/>
<path d="M4598 1203 c7 -3 16 -2 19 1 4 3 -2 6 -13 5 -11 0 -14 -3 -6 -6z"/>
<path d="M5388 1203 c6 -2 18 -2 25 0 6 3 1 5 -13 5 -14 0 -19 -2 -12 -5z"/>
<path d="M5478 1203 c7 -3 16 -2 19 1 4 3 -2 6 -13 5 -11 0 -14 -3 -6 -6z"/>
<path d="M7496 1196 c17 -8 41 -24 53 -37 l21 -23 0 27 c0 22 -6 28 -37 36
-53 15 -74 13 -37 -3z"/>
<path d="M9976 1196 c17 -8 41 -24 53 -37 l21 -23 0 27 c0 22 -6 28 -37 36
-53 15 -74 13 -37 -3z"/>
<path d="M10312 1182 c-6 -16 -6 -35 -1 -43 4 -7 20 -47 35 -89 14 -41 32 -88
39 -105 33 -74 65 -169 65 -192 0 -15 -8 -27 -22 -33 -17 -6 -5 -9 47 -9 39 1
64 3 57 6 -19 8 -43 61 -127 283 -43 113 -79 206 -80 208 -2 2 -7 -10 -13 -26z"/>
<path d="M12878 1203 c7 -3 16 -2 19 1 4 3 -2 6 -13 5 -11 0 -14 -3 -6 -6z"/>
<path d="M1501 1183 c11 -12 14 -63 14 -230 0 -201 -1 -216 -19 -229 -18 -13
-15 -14 35 -14 41 1 50 3 37 11 -16 9 -18 31 -18 239 0 173 3 230 13 233 6 3
-8 6 -32 6 -39 1 -42 -1 -30 -16z"/>
<path d="M1910 1190 c12 -8 16 -46 18 -224 3 -206 2 -216 -17 -235 l-21 -21
56 0 c51 0 54 1 39 16 -14 14 -15 46 -13 245 l3 229 -40 0 c-29 0 -36 -3 -25
-10z"/>
<path d="M2340 1190 c12 -7 16 -45 20 -202 5 -210 9 -226 63 -258 38 -24 61
-27 29 -4 -46 32 -52 60 -52 258 0 154 3 187 16 200 14 15 11 16 -38 16 -37 0
-49 -3 -38 -10z"/>
<path d="M2636 1173 c10 -21 14 -68 14 -188 0 -178 -9 -225 -47 -255 -30 -23
-24 -26 16 -6 60 31 66 53 71 261 3 105 9 196 13 203 6 9 -3 12 -37 12 l-45 0
15 -27z"/>
<path d="M2790 1190 c12 -8 16 -46 18 -224 3 -206 2 -216 -17 -235 l-21 -21
53 0 c31 0 47 4 39 8 -10 7 -12 61 -10 245 l3 237 -40 0 c-29 0 -36 -3 -25
-10z"/>
<path d="M3030 1178 c19 -13 45 -45 59 -73 23 -43 26 -62 26 -150 0 -85 -4
-107 -24 -148 -13 -27 -39 -58 -59 -72 -47 -32 -31 -32 23 -1 27 16 51 42 71
78 26 48 29 62 29 143 0 75 -4 98 -24 138 -23 48 -89 107 -119 107 -8 0 0 -10
18 -22z"/>
<path d="M3234 1184 c14 -13 16 -48 16 -229 0 -181 -2 -216 -16 -229 -14 -15
-12 -16 20 -16 l35 0 3 138 c2 75 2 185 0 245 l-3 107 -35 0 c-32 0 -34 -1
-20 -16z"/>
<path d="M3473 1189 c21 -5 47 -14 58 -19 16 -9 19 -7 19 10 0 18 -6 20 -57
19 -57 -1 -57 -1 -20 -10z"/>
<path d="M3597 1192 c6 -4 46 -69 87 -144 66 -118 76 -144 76 -185 -1 -67 -15
-134 -31 -144 -9 -5 8 -9 45 -9 54 0 58 1 41 14 -16 12 -20 29 -22 111 -2 89
-5 102 -37 159 -65 117 -88 169 -83 187 5 17 -1 19 -41 19 -26 0 -42 -4 -35
-8z"/>
<path d="M3907 1181 c3 -10 -4 -40 -16 -65 -28 -65 -17 -57 19 13 16 33 35 61
42 64 7 3 -1 6 -19 6 -26 1 -30 -2 -26 -18z"/>
<path d="M4463 1180 c-45 -27 -89 -91 -103 -151 -32 -130 37 -284 140 -314 20
-6 18 -3 -10 16 -22 15 -46 47 -65 84 -26 51 -30 71 -30 140 0 100 22 161 76
209 43 40 41 46 -8 16z"/>
<path d="M4658 1174 c120 -95 111 -362 -14 -445 -34 -22 -25 -25 14 -5 39 21
89 75 106 118 18 43 21 172 5 215 -17 46 -60 102 -94 123 -46 28 -56 25 -17
-6z"/>
<path d="M4858 1193 c6 -2 12 -11 12 -19 0 -9 4 -13 9 -10 5 3 78 -99 162
-227 152 -229 154 -231 157 -193 2 21 -1 42 -6 45 -5 3 -68 97 -141 209 l-133
202 -37 -1 c-20 0 -30 -3 -23 -6z"/>
<path d="M5142 1190 c15 -9 41 -67 51 -115 3 -11 5 6 6 37 1 37 6 62 17 72 14
15 11 16 -38 16 -39 -1 -49 -3 -36 -10z"/>
<path d="M5300 1190 c12 -8 16 -46 18 -224 3 -206 2 -216 -17 -235 l-21 -21
53 0 c31 0 47 4 39 8 -10 7 -12 61 -10 245 l3 237 -40 0 c-29 0 -36 -3 -25
-10z"/>
<path d="M5540 1178 c19 -13 45 -45 59 -73 23 -43 26 -62 26 -150 0 -85 -4
-107 -24 -148 -13 -27 -39 -58 -59 -72 -47 -32 -31 -32 23 -1 27 16 51 42 71
78 26 48 29 62 29 143 0 75 -4 98 -24 138 -23 48 -89 107 -119 107 -8 0 0 -10
18 -22z"/>
<path d="M5740 1180 c0 -18 3 -19 22 -9 12 6 33 15 47 20 21 6 17 7 -21 8 -42
1 -48 -2 -48 -19z"/>
<path d="M6007 1163 c-13 -21 -73 -114 -132 -208 -59 -93 -118 -187 -131 -207
l-24 -38 22 0 c19 0 47 38 153 207 193 306 180 283 156 283 -13 0 -30 -14 -44
-37z"/>
<path d="M6134 1184 c14 -13 16 -48 16 -229 0 -181 -2 -216 -16 -229 -14 -15
-10 -16 40 -16 l56 0 -20 20 c-19 19 -20 33 -20 223 0 167 3 206 16 225 15 22
15 22 -36 22 -47 0 -50 -1 -36 -16z"/>
<path d="M6300 1185 c9 -11 15 -65 18 -164 5 -171 -3 -275 -25 -296 -13 -13
-10 -15 24 -15 l38 0 -2 142 c-1 79 -3 189 -3 246 l0 102 -31 0 c-27 0 -30 -2
-19 -15z"/>
<path d="M6537 1190 c18 -4 44 -15 58 -24 24 -16 25 -16 25 9 0 24 -2 25 -57
24 -50 -1 -53 -2 -26 -9z"/>
<path d="M6681 1183 c11 -12 14 -63 14 -230 0 -201 -1 -216 -19 -229 -18 -13
-17 -14 20 -14 l39 0 0 223 c1 157 5 229 13 245 12 21 11 22 -34 22 -42 0 -45
-2 -33 -17z"/>
<path d="M7333 1180 c-142 -86 -150 -334 -14 -437 23 -18 50 -33 59 -33 11 0
6 7 -14 19 -67 41 -99 116 -99 231 0 73 4 93 28 142 17 34 41 65 60 77 41 26
23 27 -20 1z"/>
<path d="M7698 1173 c16 -16 95 -127 173 -248 135 -206 144 -218 147 -185 2
30 -16 64 -138 248 -140 211 -141 212 -177 212 l-36 0 31 -27z"/>
<path d="M7958 1193 c16 -6 52 -76 53 -105 1 -13 5 3 9 36 4 32 14 62 21 67 9
5 -6 8 -41 8 -30 0 -49 -3 -42 -6z"/>
<path d="M8130 1185 c9 -11 15 -65 18 -164 5 -171 -3 -275 -25 -296 -13 -13
-10 -15 24 -15 l38 0 -2 142 c-1 79 -3 189 -3 246 l0 102 -31 0 c-27 0 -30 -2
-19 -15z"/>
<path d="M8367 1190 c18 -4 44 -15 58 -24 24 -16 25 -16 25 9 0 24 -2 25 -57
24 -50 -1 -53 -2 -26 -9z"/>
<path d="M8510 1185 c9 -11 15 -65 18 -164 5 -171 -3 -275 -25 -296 -13 -13
-10 -15 24 -15 l38 0 0 228 c0 179 3 233 14 245 12 15 9 17 -34 17 -42 0 -46
-2 -35 -15z"/>
<path d="M8891 1183 c11 -12 14 -63 14 -230 0 -201 -1 -216 -19 -229 -18 -13
-17 -14 20 -14 l39 0 0 245 0 245 -34 0 c-30 0 -32 -2 -20 -17z"/>
<path d="M9127 1190 c18 -4 44 -15 58 -24 24 -16 25 -16 25 9 0 24 -2 25 -57
24 -50 -1 -53 -2 -26 -9z"/>
<path d="M9273 1175 c7 -13 14 -19 16 -13 2 6 73 -94 157 -223 143 -217 154
-231 154 -196 0 31 -22 72 -137 247 -131 200 -140 210 -170 210 -30 0 -31 -1
-20 -25z"/>
<path d="M9558 1178 c11 -13 24 -36 28 -51 8 -34 24 -18 24 24 0 14 5 30 12
37 9 9 1 12 -37 12 l-48 0 21 -22z"/>
<path d="M9813 1180 c-142 -86 -150 -334 -14 -437 23 -18 50 -33 59 -33 11 0
6 7 -14 19 -67 41 -99 116 -99 231 0 73 4 93 28 142 17 34 41 65 60 77 41 26
23 27 -20 1z"/>
<path d="M10941 1183 c11 -12 14 -63 14 -230 0 -201 -1 -216 -19 -229 -18 -13
-17 -14 20 -14 l39 0 0 223 c1 157 5 229 13 245 12 21 11 22 -34 22 -42 0 -45
-2 -33 -17z"/>
<path d="M11423 1180 c-142 -86 -150 -334 -14 -437 23 -18 50 -33 59 -33 11 0
6 7 -14 19 -67 41 -99 116 -99 231 0 73 4 93 28 142 17 34 41 65 60 77 41 26
23 27 -20 1z"/>
<path d="M11610 1178 c19 -13 45 -45 59 -73 23 -43 26 -62 26 -150 0 -114 -16
-158 -80 -213 -39 -35 -38 -40 3 -18 98 52 149 200 110 327 -13 46 -68 113
-109 134 -42 22 -47 18 -9 -7z"/>
<path d="M11924 1181 c-17 -10 -44 -35 -61 -55 -96 -117 -59 -335 69 -402 41
-22 42 -17 3 18 -64 55 -80 99 -80 213 0 88 3 107 26 150 14 28 40 60 59 73
40 27 28 30 -16 3z"/>
<path d="M12113 1180 c33 -26 41 -63 22 -100 -9 -17 -19 -30 -23 -30 -4 0 -29
-20 -55 -45 -51 -49 -62 -90 -31 -116 15 -12 16 -11 9 9 -6 20 2 32 47 75 69
66 88 95 88 135 0 34 -44 92 -71 92 -6 0 0 -9 14 -20z"/>
<path d="M12230 1185 c9 -11 15 -65 18 -164 5 -171 -3 -275 -25 -296 -13 -13
-8 -15 43 -15 52 0 56 1 38 14 -18 13 -19 28 -19 229 0 167 3 218 14 230 12
15 9 17 -34 17 -42 0 -46 -2 -35 -15z"/>
<path d="M12498 1158 c4 -59 -21 -95 -99 -141 -71 -43 -46 -40 43 4 57 29 90
64 101 109 10 39 -2 70 -27 70 -19 0 -21 -5 -18 -42z"/>
<path d="M12743 1180 c-45 -27 -89 -91 -103 -151 -32 -130 37 -284 140 -314
20 -6 18 -3 -10 16 -22 15 -46 47 -65 84 -26 51 -30 71 -30 140 0 100 22 161
76 209 43 40 41 46 -8 16z"/>
<path d="M12938 1174 c120 -95 111 -362 -14 -445 -34 -22 -25 -25 14 -5 39 21
89 75 106 118 18 43 21 172 5 215 -17 46 -60 102 -94 123 -46 28 -56 25 -17
-6z"/>
<path d="M525 1145 c-27 -13 -61 -32 -74 -42 l-24 -18 6 33 c10 51 -13 36 -46
-28 -38 -74 -45 -80 -53 -41 l-7 33 -13 -23 c-7 -13 -13 -43 -14 -65 0 -62
-40 -86 -40 -25 -1 25 -1 26 -16 6 -11 -14 -14 -34 -11 -65 3 -25 0 -54 -5
-64 -10 -18 -12 -16 -26 15 l-16 34 -4 -42 c-2 -23 2 -51 7 -62 6 -11 11 -30
11 -43 -1 -22 -1 -22 -25 7 -13 16 -27 26 -31 22 -11 -11 15 -87 32 -94 8 -3
14 -18 14 -37 l-1 -31 -20 28 c-25 32 -39 35 -39 6 0 -12 15 -36 34 -53 18
-18 37 -43 41 -56 l7 -23 -27 21 c-53 42 -61 21 -14 -33 17 -19 37 -35 45 -35
7 0 18 -9 25 -21 10 -19 9 -20 -13 -14 -12 4 -29 10 -35 12 -21 8 -15 -12 10
-35 13 -12 37 -25 54 -28 18 -3 39 -14 48 -24 16 -17 15 -18 -24 -13 -23 3
-41 3 -41 -1 0 -15 68 -46 101 -46 20 0 42 -6 48 -14 9 -11 4 -15 -26 -21
l-38 -7 29 -15 c20 -11 44 -14 77 -10 32 4 53 1 65 -8 18 -14 18 -14 -6 -15
-14 0 -31 -4 -38 -9 -31 -19 63 -30 98 -11 14 7 35 6 72 -3 l53 -14 -31 -16
c-17 -8 -36 -23 -43 -31 -20 -24 14 -20 68 8 l45 23 50 -23 c28 -13 57 -24 65
-24 21 0 -8 30 -44 46 -32 13 -33 13 44 34 31 8 47 8 54 1 12 -12 75 -15 101
-5 22 9 10 24 -20 24 -26 0 -32 15 -9 23 8 4 36 4 62 1 34 -4 54 -1 67 9 19
14 18 15 -13 22 -26 5 -30 9 -20 21 6 8 27 14 46 14 36 0 93 27 93 43 0 5 -16
7 -36 4 -35 -6 -36 -6 -19 13 9 10 30 22 45 25 29 6 78 51 68 61 -4 3 -15 1
-26 -5 -12 -6 -26 -11 -31 -11 -20 0 10 35 41 49 28 12 73 69 63 79 -2 3 -16
-3 -29 -12 -30 -19 -36 -20 -36 -5 0 5 13 22 29 37 28 25 51 69 51 95 0 6 -13
-2 -30 -18 -29 -28 -30 -28 -30 -7 0 12 9 31 20 42 13 13 20 33 20 58 l-1 37
-25 -30 -26 -30 6 35 c3 19 8 50 12 67 3 18 3 41 -1 50 -5 15 -10 12 -25 -16
-15 -30 -18 -32 -23 -15 -3 10 -5 43 -4 72 1 62 -17 91 -28 43 -4 -17 -10 -31
-13 -31 -13 0 -32 39 -26 54 7 19 -14 86 -27 86 -5 0 -9 -14 -9 -32 0 -30 -1
-30 -19 -14 -10 9 -21 30 -24 45 -4 16 -18 42 -32 57 l-26 29 4 -32 c4 -39 4
-39 -33 -13 -55 39 -150 75 -136 51 12 -19 101 -71 121 -71 13 0 28 -6 34 -14
9 -11 5 -15 -19 -19 -16 -4 -30 -11 -30 -17 0 -14 45 -23 79 -17 22 5 33 1 47
-15 11 -12 14 -18 7 -14 -7 3 -24 4 -39 0 -25 -6 -26 -8 -10 -20 10 -7 35 -15
56 -19 21 -4 46 -15 55 -25 16 -18 15 -18 -27 -13 l-43 6 19 -22 c11 -11 37
-26 58 -33 22 -6 44 -20 50 -31 9 -17 8 -19 -7 -13 -9 3 -28 9 -43 13 l-25 6
19 -26 c10 -15 34 -32 52 -39 21 -8 32 -19 32 -31 0 -13 -5 -17 -15 -13 -8 3
-22 9 -30 12 -8 3 -15 2 -15 -4 0 -16 41 -62 56 -62 8 0 14 -10 14 -25 0 -30
-4 -31 -31 -4 -11 11 -23 18 -26 15 -10 -9 7 -56 28 -77 14 -14 18 -27 13 -41
-6 -21 -7 -21 -21 5 -26 51 -47 -2 -22 -56 7 -17 8 -31 2 -42 -9 -15 -12 -13
-22 16 l-13 34 -9 -25 c-6 -14 -8 -40 -4 -58 4 -21 1 -40 -10 -54 l-15 -22 0
26 c0 15 -4 29 -9 33 -14 8 -31 -28 -31 -62 0 -17 -8 -33 -20 -41 -18 -11 -20
-10 -20 19 0 31 -1 32 -19 15 -11 -10 -23 -31 -26 -47 -4 -16 -15 -34 -25 -39
-17 -9 -18 -7 -14 27 l5 38 -40 -43 c-61 -66 -157 -87 -271 -61 -34 8 -56 22
-87 56 -24 26 -45 44 -48 42 -2 -3 -1 -19 4 -37 14 -47 -14 -30 -38 23 -24 55
-41 66 -41 26 0 -28 -2 -30 -19 -19 -11 7 -21 27 -24 51 -3 22 -13 47 -21 56
-15 14 -16 12 -16 -24 l0 -40 -18 23 c-12 15 -17 35 -14 53 5 37 -6 82 -18 74
-6 -3 -10 -15 -10 -26 0 -10 -5 -19 -10 -19 -17 0 -23 29 -11 44 7 8 11 34 9
58 l-3 43 -15 -32 c-8 -17 -18 -29 -22 -27 -15 9 -8 41 12 59 12 10 20 31 20
48 l0 30 -25 -23 -25 -23 0 25 c0 16 8 29 24 37 21 12 54 61 40 61 -3 0 -19
-7 -36 -16 -29 -15 -30 -15 -24 1 3 9 6 21 6 26 0 5 6 9 13 9 17 0 84 56 76
64 -3 4 -19 2 -34 -4 -32 -12 -38 -9 -30 12 3 8 23 20 44 26 21 7 46 21 57 33
l19 22 -37 -5 c-21 -2 -38 -1 -38 2 0 12 25 30 42 30 10 0 35 7 56 16 l37 16
-34 12 c-45 16 -26 30 42 32 58 1 84 20 41 29 -16 4 -33 8 -37 9 -12 2 32 23
63 30 35 8 119 76 94 76 -10 0 -41 -11 -69 -25z"/>
<path d="M7359 1020 c-27 -22 -22 -25 16 -10 21 8 42 5 101 -16 76 -26 134
-29 142 -6 2 8 -7 12 -27 12 -17 0 -53 9 -81 20 -65 26 -121 26 -151 0z"/>
<path d="M9839 1020 c-27 -22 -22 -25 16 -10 21 8 42 5 101 -16 76 -26 134
-29 142 -6 2 8 -7 12 -27 12 -17 0 -53 9 -81 20 -65 26 -121 26 -151 0z"/>
<path d="M3330 1003 c0 -11 95 -53 118 -53 10 0 27 7 38 15 18 14 17 14 -12
15 -17 0 -51 7 -74 15 -47 16 -70 19 -70 8z"/>
<path d="M6400 1001 c0 -10 91 -51 113 -51 8 0 25 8 38 19 l23 18 -31 -4 c-16
-3 -51 2 -77 11 -53 18 -66 20 -66 7z"/>
<path d="M8230 1001 c0 -10 91 -51 113 -51 8 0 25 8 38 19 l23 18 -31 -4 c-16
-3 -51 2 -77 11 -53 18 -66 20 -66 7z"/>
<path d="M8990 1001 c0 -10 91 -51 113 -51 8 0 25 8 38 19 l23 18 -32 -5 c-18
-2 -50 3 -72 12 -45 18 -70 20 -70 7z"/>
<path d="M10249 940 c-82 -57 -109 -93 -109 -144 0 -89 95 -126 170 -65 l25
20 -32 -15 c-44 -22 -67 -20 -99 7 -53 46 -28 138 50 186 29 18 66 52 55 50
-2 0 -29 -18 -60 -39z"/>
<path d="M702 958 c-27 -27 5 -73 38 -53 16 10 12 52 -6 59 -20 8 -18 8 -32
-6z"/>
<path d="M1760 932 c54 -55 48 -150 -13 -196 -15 -11 -51 -23 -80 -27 l-52 -6
48 -2 c50 -1 108 18 139 46 10 9 23 34 29 55 13 51 -2 99 -42 133 -42 35 -65
32 -29 -3z"/>
<path d="M2025 926 c17 -14 33 -25 36 -26 3 0 28 -33 54 -72 69 -105 82 -118
124 -118 l36 1 -27 15 c-15 8 -50 48 -78 89 -44 65 -59 79 -113 106 -59 29
-61 29 -32 5z"/>
<path d="M4065 936 c-27 -19 -24 -74 4 -98 29 -23 53 -23 81 0 28 23 30 80 4
99 -23 17 -65 17 -89 -1z"/>
<path d="M7534 929 c23 -18 26 -27 26 -86 0 -61 -2 -67 -34 -99 -39 -39 -37
-42 10 -13 51 31 64 56 64 120 0 50 -3 60 -26 78 -15 12 -36 21 -47 21 -18 0
-17 -2 7 -21z"/>
<path d="M10014 929 c23 -18 26 -27 26 -86 0 -61 -2 -67 -34 -99 -39 -39 -37
-42 10 -13 51 31 64 56 64 120 0 50 -3 60 -26 78 -15 12 -36 21 -47 21 -18 0
-17 -2 7 -21z"/>
<path d="M10677 932 c-58 -64 33 -151 91 -89 26 27 28 54 6 85 -19 28 -74 30
-97 4z"/>
<path d="M12347 920 c18 -12 53 -54 79 -93 67 -104 81 -117 123 -117 l36 1
-25 13 c-14 8 -50 49 -80 92 -54 76 -88 105 -140 119 -22 5 -21 4 7 -15z"/>
<path d="M437 883 c-10 -17 5 -84 20 -90 17 -7 35 16 28 34 -5 14 4 16 106 32
121 20 109 44 109 -209 0 -271 -7 -310 -66 -368 l-44 -42 132 0 133 0 -36 24
c-22 15 -43 41 -53 67 -25 63 -40 247 -31 403 8 154 -2 142 105 126 114 -18
118 -19 113 -39 -3 -11 0 -22 6 -25 7 -5 11 -55 11 -138 l0 -131 -50 5 c-28 3
-53 2 -55 -2 -10 -15 71 -60 108 -60 39 0 107 36 107 57 0 16 -17 26 -25 13
-3 -5 -22 -10 -41 -10 l-35 0 4 133 c5 131 7 156 21 189 4 9 4 23 0 29 -5 9
-10 5 -16 -10 -6 -17 -14 -22 -31 -18 -12 3 -70 13 -130 23 -111 18 -135 16
-340 -22 -22 -5 -29 -1 -35 17 -5 12 -12 18 -15 12z"/>
<path d="M4881 798 c-1 -34 -7 -54 -21 -68 l-20 -20 63 1 c34 1 54 3 44 6 -19
5 -46 51 -58 98 -6 26 -7 24 -8 -17z"/>
<path d="M7701 793 c-1 -33 -7 -57 -17 -67 -14 -15 -10 -16 42 -16 l57 0 -27
21 c-14 11 -32 41 -40 67 l-15 47 0 -52z"/>
<path d="M9286 776 c-4 -27 -14 -50 -24 -56 -13 -7 -2 -9 42 -10 57 0 58 0 37
18 -12 9 -28 34 -35 56 l-13 39 -7 -47z"/>
<path d="M12126 743 l-39 -36 38 6 c46 8 47 9 43 40 l-3 26 -39 -36z"/>
<path d="M6040 756 c-10 -13 -33 -20 -135 -40 -11 -2 19 -4 68 -5 l87 -1 0 30
c0 34 -3 36 -20 16z"/>
<path d="M6598 753 c-10 -9 -43 -22 -75 -29 l-58 -12 78 -1 77 -1 0 30 c0 35
0 35 -22 13z"/>
<path d="M6978 753 c-10 -9 -43 -22 -75 -29 l-58 -12 78 -1 77 -1 0 30 c0 35
0 35 -22 13z"/>
<path d="M8428 753 c-10 -9 -43 -22 -75 -29 l-58 -12 78 -1 77 -1 0 30 c0 35
0 35 -22 13z"/>
<path d="M8808 753 c-10 -9 -43 -22 -75 -29 l-58 -12 78 -1 77 -1 0 30 c0 35
0 35 -22 13z"/>
<path d="M9179 749 c-14 -11 -47 -24 -75 -28 -48 -8 -47 -9 29 -10 l77 -1 0
30 c0 17 -1 30 -2 29 -2 0 -15 -9 -29 -20z"/>
<path d="M11238 753 c-10 -9 -43 -22 -75 -29 l-58 -12 78 -1 77 -1 0 30 c0 35
0 35 -22 13z"/>
<path d="M3516 744 c-16 -9 -49 -20 -75 -24 -43 -7 -40 -8 32 -9 76 -1 77 -1
77 24 0 14 -1 25 -2 25 -2 -1 -16 -8 -32 -16z"/>
<path d="M2913 703 c15 -2 37 -2 50 0 12 2 0 4 -28 4 -27 0 -38 -2 -22 -4z"/>
<path d="M4538 703 c7 -3 16 -2 19 1 4 3 -2 6 -13 5 -11 0 -14 -3 -6 -6z"/>
<path d="M4588 703 c7 -3 16 -2 19 1 4 3 -2 6 -13 5 -11 0 -14 -3 -6 -6z"/>
<path d="M5423 703 c15 -2 37 -2 50 0 12 2 0 4 -28 4 -27 0 -38 -2 -22 -4z"/>
<path d="M11548 703 c7 -3 16 -2 19 1 4 3 -2 6 -13 5 -11 0 -14 -3 -6 -6z"/>
<path d="M11988 703 c7 -3 16 -2 19 1 4 3 -2 6 -13 5 -11 0 -14 -3 -6 -6z"/>
<path d="M12048 703 c6 -2 18 -2 25 0 6 3 1 5 -13 5 -14 0 -19 -2 -12 -5z"/>
<path d="M12818 703 c7 -3 16 -2 19 1 4 3 -2 6 -13 5 -11 0 -14 -3 -6 -6z"/>
<path d="M12868 703 c7 -3 16 -2 19 1 4 3 -2 6 -13 5 -11 0 -14 -3 -6 -6z"/>
<path d="M546 545 c-5 -14 -20 -16 -99 -14 -50 2 -91 0 -90 -4 1 -4 17 -20 34
-35 40 -33 99 -35 133 -3 12 11 28 21 34 21 14 0 15 19 3 38 -7 11 -10 10 -15
-3z"/>
<path d="M2150 320 c0 -153 2 -180 15 -180 10 0 15 10 15 27 l0 26 26 -24 c20
-19 37 -24 74 -24 61 0 100 27 120 83 13 37 13 47 0 84 -20 56 -59 83 -120 83
-37 0 -54 -5 -74 -24 l-26 -24 0 76 c0 62 -3 77 -15 77 -13 0 -15 -27 -15
-180z m180 35 c38 -20 56 -72 40 -120 -34 -104 -190 -75 -190 35 0 80 76 123
150 85z"/>
<path d="M2483 484 c-8 -21 13 -42 28 -27 13 13 5 43 -11 43 -6 0 -13 -7 -17
-16z"/>
<path d="M3780 430 c0 -38 -2 -70 -4 -70 -3 0 -21 10 -41 21 -52 31 -110 22
-152 -25 -28 -30 -33 -43 -33 -86 0 -43 5 -56 33 -86 45 -50 105 -57 160 -20
l37 25 0 -24 c0 -16 6 -25 15 -25 13 0 15 27 15 180 0 153 -2 180 -15 180 -12
0 -15 -14 -15 -70z m-57 -71 c30 -14 50 -49 50 -89 0 -91 -100 -134 -164 -71
-81 81 10 208 114 160z"/>
<path d="M3899 498 c-6 -13 -4 -118 2 -118 11 0 31 66 27 92 -2 18 -25 38 -29
26z"/>
<path d="M1585 461 c-140 -63 -136 -246 7 -305 58 -25 139 -16 177 19 26 25 2
35 -32 15 -65 -40 -163 -16 -201 48 -72 126 65 260 196 193 36 -18 48 -18 48
1 0 15 -83 48 -120 48 -19 0 -53 -9 -75 -19z"/>
<path d="M3250 425 c0 -18 -5 -25 -20 -25 -11 0 -20 -7 -20 -15 0 -8 9 -15 20
-15 19 0 20 -7 20 -90 0 -83 2 -93 25 -115 24 -25 49 -31 79 -19 30 11 18 31
-16 26 -46 -7 -58 16 -58 115 l0 83 40 0 c29 0 40 4 40 15 0 11 -11 15 -40 15
-36 0 -40 3 -40 25 0 16 -6 25 -15 25 -9 0 -15 -9 -15 -25z"/>
<path d="M5450 425 c0 -20 -5 -25 -25 -25 -16 0 -25 -6 -25 -15 0 -9 9 -15 25
-15 25 0 25 0 25 -94 0 -90 1 -96 26 -115 27 -21 50 -26 78 -15 29 11 18 31
-14 26 -51 -7 -60 10 -60 109 l0 89 40 0 c29 0 40 4 40 15 0 11 -11 15 -40 15
-36 0 -40 3 -40 25 0 16 -6 25 -15 25 -9 0 -15 -9 -15 -25z"/>
<path d="M1883 386 c-38 -17 -46 -43 -10 -31 12 4 41 10 64 12 32 4 45 1 62
-16 12 -12 21 -30 21 -41 0 -18 -7 -20 -64 -20 -79 0 -116 -24 -116 -74 0 -47
30 -71 90 -71 33 0 54 6 69 19 21 19 21 19 21 -2 0 -13 6 -22 15 -22 12 0 15
18 15 99 0 90 -2 103 -23 126 -28 33 -96 43 -144 21z m137 -150 c0 -49 -80
-83 -131 -56 -21 12 -25 50 -7 68 7 7 39 12 75 12 60 0 63 -1 63 -24z"/>
<path d="M2480 270 c0 -109 2 -130 15 -130 13 0 15 21 15 130 0 109 -2 130
-15 130 -13 0 -15 -21 -15 -130z"/>
<path d="M2620 270 c0 -109 2 -130 15 -130 12 0 15 17 15 90 0 83 2 93 25 115
16 17 35 25 60 25 25 0 44 -8 60 -25 23 -22 25 -32 25 -115 0 -73 3 -90 15
-90 12 0 15 17 15 90 0 100 -11 135 -51 156 -39 19 -78 18 -117 -6 -40 -25
-42 -25 -42 0 0 11 -4 20 -10 20 -6 0 -10 -50 -10 -130z"/>
<path d="M2990 383 c-103 -53 -78 -217 36 -239 37 -7 108 9 119 26 13 20 -6
28 -33 14 -57 -30 -132 -7 -150 46 l-11 30 111 0 111 0 -6 37 c-13 80 -103
124 -177 86z m103 -25 c26 -13 46 -38 47 -55 0 -10 -25 -13 -94 -13 -90 0 -94
1 -89 20 13 49 86 75 136 48z"/>
<path d="M4033 386 c-38 -17 -46 -43 -10 -31 81 26 147 9 147 -39 0 -22 -4
-24 -69 -28 -50 -2 -75 -9 -90 -22 -26 -24 -27 -66 -2 -97 25 -31 108 -34 140
-5 21 19 21 19 21 -2 0 -13 6 -22 15 -22 12 0 15 18 15 99 0 90 -2 103 -23
126 -28 33 -96 43 -144 21z m137 -148 c0 -29 -9 -42 -37 -57 -50 -26 -113 -4
-113 39 0 28 27 39 93 40 53 0 57 -2 57 -22z"/>
<path d="M4309 270 c45 -104 60 -130 74 -128 13 2 35 40 73 126 30 67 54 125
54 127 0 3 -6 5 -14 5 -8 0 -34 -47 -62 -110 -26 -61 -51 -107 -54 -103 -4 5
-26 54 -51 111 -30 71 -49 102 -60 102 -14 0 -6 -24 40 -130z"/>
<path d="M4611 382 c-75 -38 -90 -141 -30 -202 54 -54 129 -52 186 5 28 28 33
40 33 83 0 102 -97 161 -189 114z m130 -41 c81 -81 -10 -208 -114 -160 -65 29
-67 147 -3 177 41 21 86 14 117 -17z"/>
<path d="M4923 386 c-41 -18 -73 -70 -73 -116 0 -76 74 -139 148 -126 45 7 87
35 74 48 -7 7 -18 5 -33 -6 -36 -25 -95 -21 -124 8 -88 88 17 227 121 160 18
-12 28 -14 36 -6 14 14 -31 43 -79 48 -21 2 -52 -2 -70 -10z"/>
<path d="M5171 384 c-43 -18 -30 -41 13 -24 66 25 126 2 126 -48 0 -20 -5 -22
-54 -22 -69 0 -103 -13 -118 -44 -32 -71 66 -134 142 -91 32 18 40 18 40 0 0
-8 5 -15 10 -15 11 0 14 187 4 215 -16 41 -101 57 -163 29z m139 -153 c0 -37
-31 -61 -79 -61 -35 0 -71 23 -71 46 0 29 31 44 91 44 59 0 59 0 59 -29z"/>
<path d="M5670 393 c-29 -11 -50 -36 -50 -62 0 -45 24 -64 97 -76 22 -3 48
-14 57 -24 14 -15 14 -19 0 -39 -17 -25 -72 -30 -120 -12 -18 7 -31 7 -37 1
-18 -18 61 -44 112 -38 46 5 91 41 91 73 0 25 -36 51 -91 64 -62 15 -79 25
-79 51 0 35 76 52 122 28 16 -9 23 -8 29 2 16 26 -82 50 -131 32z"/>
</g>
</svg>
